<svg viewBox="0 0 197 75" fill="none" xmlns="http://www.w3.org/2000/svg">
  <g filter="url(#a)">
    <path d="M67 33.5C67 52.002 52.897 67 35.5 67S4 52.002 4 33.5C4 14.998 18.103 0 35.5 0S67 14.998 67 33.5Z" fill="#284B63"/>
    <path d="M66.5 33.5c0 18.255-13.908 33-31 33s-31-14.745-31-33c0-18.255 13.908-33 31-33s31 14.745 31 33Z" stroke="#8499B1"/>
  </g>
  <path d="m39.467 5.072-2.757.222a2 2 0 0 0-1.826 1.768l-2.947 26.01-6.176-15.768c-.715-1.825-3.356-1.64-3.808.268l-4.366 18.422H8a2 2 0 0 0-2 2v3.054a2 2 0 0 0 2 2h13.07a2 2 0 0 0 1.945-1.54l1.938-8.175 7.55 19.277c.76 1.942 3.615 1.568 3.85-.505l3.057-26.983 4.068 16.407a2 2 0 0 0 1.94 1.519H63a2 2 0 0 0 2-2v-3.054a2 2 0 0 0-2-2H48.86l-7.29-29.41a2 2 0 0 0-2.103-1.512Z" fill="#fff" stroke="#8499B1" stroke-width="2"/>
  <mask id="b" maskUnits="userSpaceOnUse" x="69" y="22" width="128" height="23" fill="#000">
    <path fill="#fff" d="M69 22h128v23H69z"/>
    <path d="M77.921 36.415h-4.528v-2.857h4.528c.7 0 1.27-.114 1.71-.342.439-.236.76-.561.964-.976.203-.415.305-.883.305-1.404a3.58 3.58 0 0 0-.305-1.477 2.465 2.465 0 0 0-.965-1.099c-.44-.276-1.009-.415-1.709-.415h-3.259V42.75H71V24.977h6.921c1.392 0 2.584.252 3.577.756 1.001.497 1.766 1.184 2.295 2.063.529.88.793 1.884.793 3.015 0 1.148-.264 2.14-.793 2.979-.529.838-1.294 1.485-2.295 1.941-.993.456-2.185.684-3.577.684ZM94.706 39.588V29.542h3.516V42.75h-3.308l-.208-3.162Zm.39-2.71 1.038-.024c0 .879-.101 1.697-.305 2.454-.203.748-.508 1.4-.915 1.953-.407.545-.92.972-1.538 1.281-.619.302-1.347.452-2.186.452-.642 0-1.236-.09-1.782-.268a3.629 3.629 0 0 1-1.391-.867c-.383-.399-.684-.907-.904-1.526-.211-.627-.317-1.38-.317-2.258v-8.533h3.515v8.557c0 .39.045.72.135.989.097.268.232.488.403.66.17.17.37.292.598.365.236.074.496.11.781.11.724 0 1.294-.146 1.709-.44.423-.292.72-.691.891-1.196.18-.512.269-1.082.269-1.709ZM104.618 24v18.75h-3.528V24h3.528ZM114.665 39.1c0-.252-.074-.48-.22-.684-.147-.203-.419-.39-.818-.561-.391-.18-.956-.342-1.697-.488-.667-.147-1.29-.33-1.868-.55a6.487 6.487 0 0 1-1.489-.818 3.555 3.555 0 0 1-.976-1.123c-.236-.439-.354-.94-.354-1.501 0-.553.118-1.074.354-1.563.244-.488.59-.92 1.037-1.293.456-.383 1.009-.68 1.66-.892.66-.22 1.4-.33 2.222-.33 1.148 0 2.132.184 2.954.55.83.366 1.465.87 1.905 1.514.447.635.671 1.359.671 2.173h-3.516c0-.342-.073-.647-.219-.916a1.456 1.456 0 0 0-.66-.647c-.293-.163-.675-.244-1.147-.244-.391 0-.728.07-1.013.208-.285.13-.505.309-.659.537-.147.22-.22.463-.22.732 0 .204.041.387.122.55.089.154.232.297.427.427.195.13.448.252.757.366.317.106.708.203 1.172.293.952.195 1.802.451 2.551.769.749.31 1.343.732 1.782 1.27.44.528.66 1.224.66 2.087 0 .586-.131 1.123-.391 1.611a3.898 3.898 0 0 1-1.123 1.282c-.488.358-1.074.639-1.758.842-.675.196-1.436.293-2.283.293-1.229 0-2.27-.22-3.125-.659-.846-.44-1.489-.997-1.928-1.672-.432-.684-.647-1.384-.647-2.1h3.332c.016.48.139.867.366 1.16a2 2 0 0 0 .891.634c.367.13.761.196 1.185.196.455 0 .834-.061 1.135-.183.301-.13.529-.301.683-.513.163-.22.245-.472.245-.757ZM126.444 42.994c-1.025 0-1.945-.163-2.758-.488a6.063 6.063 0 0 1-2.076-1.38 6.153 6.153 0 0 1-1.294-2.038 6.866 6.866 0 0 1-.451-2.49v-.489c0-1 .142-1.916.427-2.746.285-.83.692-1.55 1.221-2.16a5.362 5.362 0 0 1 1.953-1.405c.765-.333 1.627-.5 2.588-.5.936 0 1.766.155 2.49.464a4.88 4.88 0 0 1 1.819 1.318c.496.57.871 1.253 1.123 2.05.252.79.378 1.67.378 2.638v1.464h-10.498V34.89h7.044v-.269c0-.488-.09-.923-.269-1.306-.171-.39-.431-.7-.781-.928-.35-.228-.798-.342-1.343-.342-.464 0-.863.102-1.196.306a2.361 2.361 0 0 0-.818.854 4.639 4.639 0 0 0-.464 1.294 8.207 8.207 0 0 0-.146 1.611v.489a4.7 4.7 0 0 0 .219 1.465c.155.447.371.834.647 1.16.285.325.627.577 1.026.756a3.39 3.39 0 0 0 1.379.269c.635 0 1.225-.122 1.77-.367a3.827 3.827 0 0 0 1.428-1.135l1.709 1.856c-.276.398-.655.78-1.135 1.147-.472.366-1.042.667-1.709.903-.667.228-1.428.342-2.283.342ZM153.166 39.894v2.856h-12.598l.772-2.869 11.826.013Zm-.184-12.879L142.191 42.75h-2.575v-2.1l10.876-15.673h2.49v2.038Zm-1.257-2.038-.885 2.868h-11.212v-2.868h12.097ZM154.447 36.28v-.256c0-.968.139-1.86.415-2.673a6.19 6.19 0 0 1 1.209-2.137 5.416 5.416 0 0 1 1.953-1.403c.773-.342 1.66-.513 2.661-.513 1.001 0 1.892.17 2.673.513a5.388 5.388 0 0 1 1.966 1.403 6.07 6.07 0 0 1 1.22 2.137c.277.813.415 1.705.415 2.673v.256a8.32 8.32 0 0 1-.415 2.674 6.218 6.218 0 0 1-1.22 2.136 5.416 5.416 0 0 1-1.953 1.404c-.774.333-1.661.5-2.662.5s-1.892-.167-2.673-.5a5.53 5.53 0 0 1-1.965-1.404 6.343 6.343 0 0 1-1.209-2.136 8.348 8.348 0 0 1-.415-2.674Zm3.516-.256v.256c0 .554.049 1.07.146 1.55.098.48.253.904.464 1.27.22.358.505.639.855.842.35.204.777.306 1.281.306.489 0 .908-.102 1.258-.306.35-.203.63-.484.842-.842.212-.366.366-.79.464-1.27.106-.48.159-.996.159-1.55v-.256c0-.537-.053-1.042-.159-1.514a3.997 3.997 0 0 0-.476-1.27 2.366 2.366 0 0 0-.842-.878c-.35-.212-.774-.318-1.27-.318s-.92.106-1.269.318a2.5 2.5 0 0 0-.843.879c-.211.366-.366.79-.464 1.27a7.511 7.511 0 0 0-.146 1.513ZM172.562 32.362V42.75h-3.515V29.542h3.296l.219 2.82Zm-.512 3.32h-.952c0-.976.126-1.855.378-2.637.252-.789.606-1.46 1.062-2.014a4.564 4.564 0 0 1 1.624-1.281c.634-.302 1.342-.452 2.124-.452.618 0 1.184.09 1.696.268.513.18.953.464 1.319.855.374.39.659.907.854 1.55.204.643.305 1.428.305 2.356v8.423h-3.54v-8.435c0-.586-.081-1.042-.244-1.367a1.369 1.369 0 0 0-.72-.684c-.309-.138-.692-.207-1.147-.207-.472 0-.883.093-1.233.28a2.45 2.45 0 0 0-.855.782c-.22.325-.386.708-.5 1.147-.114.44-.171.912-.171 1.416ZM189.213 42.994c-1.025 0-1.945-.163-2.759-.488a6.06 6.06 0 0 1-2.075-1.38 6.121 6.121 0 0 1-1.294-2.038 6.866 6.866 0 0 1-.452-2.49v-.489c0-1 .143-1.916.428-2.746.284-.83.691-1.55 1.22-2.16a5.362 5.362 0 0 1 1.953-1.405c.765-.333 1.628-.5 2.588-.5.936 0 1.766.155 2.49.464.725.309 1.331.748 1.819 1.318.497.57.871 1.253 1.123 2.05.253.79.379 1.67.379 2.638v1.464h-10.498V34.89h7.043v-.269c0-.488-.089-.923-.268-1.306-.171-.39-.432-.7-.782-.928-.35-.228-.797-.342-1.342-.342-.464 0-.863.102-1.197.306a2.37 2.37 0 0 0-.818.854 4.639 4.639 0 0 0-.463 1.294 8.203 8.203 0 0 0-.147 1.611v.489c0 .529.073 1.017.22 1.465.154.447.37.834.647 1.16a2.95 2.95 0 0 0 1.025.756c.407.179.867.269 1.38.269.634 0 1.224-.122 1.77-.367a3.835 3.835 0 0 0 1.428-1.135l1.709 1.856c-.277.398-.655.78-1.135 1.147-.472.366-1.042.667-1.709.903-.668.228-1.429.342-2.283.342Z"/>
  </mask>
  <path d="M77.921 36.415h-4.528v-2.857h4.528c.7 0 1.27-.114 1.71-.342.439-.236.76-.561.964-.976.203-.415.305-.883.305-1.404a3.58 3.58 0 0 0-.305-1.477 2.465 2.465 0 0 0-.965-1.099c-.44-.276-1.009-.415-1.709-.415h-3.259V42.75H71V24.977h6.921c1.392 0 2.584.252 3.577.756 1.001.497 1.766 1.184 2.295 2.063.529.88.793 1.884.793 3.015 0 1.148-.264 2.14-.793 2.979-.529.838-1.294 1.485-2.295 1.941-.993.456-2.185.684-3.577.684ZM94.706 39.588V29.542h3.516V42.75h-3.308l-.208-3.162Zm.39-2.71 1.038-.024c0 .879-.101 1.697-.305 2.454-.203.748-.508 1.4-.915 1.953-.407.545-.92.972-1.538 1.281-.619.302-1.347.452-2.186.452-.642 0-1.236-.09-1.782-.268a3.629 3.629 0 0 1-1.391-.867c-.383-.399-.684-.907-.904-1.526-.211-.627-.317-1.38-.317-2.258v-8.533h3.515v8.557c0 .39.045.72.135.989.097.268.232.488.403.66.17.17.37.292.598.365.236.074.496.11.781.11.724 0 1.294-.146 1.709-.44.423-.292.72-.691.891-1.196.18-.512.269-1.082.269-1.709ZM104.618 24v18.75h-3.528V24h3.528ZM114.665 39.1c0-.252-.074-.48-.22-.684-.147-.203-.419-.39-.818-.561-.391-.18-.956-.342-1.697-.488-.667-.147-1.29-.33-1.868-.55a6.487 6.487 0 0 1-1.489-.818 3.555 3.555 0 0 1-.976-1.123c-.236-.439-.354-.94-.354-1.501 0-.553.118-1.074.354-1.563.244-.488.59-.92 1.037-1.293.456-.383 1.009-.68 1.66-.892.66-.22 1.4-.33 2.222-.33 1.148 0 2.132.184 2.954.55.83.366 1.465.87 1.905 1.514.447.635.671 1.359.671 2.173h-3.516c0-.342-.073-.647-.219-.916a1.456 1.456 0 0 0-.66-.647c-.293-.163-.675-.244-1.147-.244-.391 0-.728.07-1.013.208-.285.13-.505.309-.659.537-.147.22-.22.463-.22.732 0 .204.041.387.122.55.089.154.232.297.427.427.195.13.448.252.757.366.317.106.708.203 1.172.293.952.195 1.802.451 2.551.769.749.31 1.343.732 1.782 1.27.44.528.66 1.224.66 2.087 0 .586-.131 1.123-.391 1.611a3.898 3.898 0 0 1-1.123 1.282c-.488.358-1.074.639-1.758.842-.675.196-1.436.293-2.283.293-1.229 0-2.27-.22-3.125-.659-.846-.44-1.489-.997-1.928-1.672-.432-.684-.647-1.384-.647-2.1h3.332c.016.48.139.867.366 1.16a2 2 0 0 0 .891.634c.367.13.761.196 1.185.196.455 0 .834-.061 1.135-.183.301-.13.529-.301.683-.513.163-.22.245-.472.245-.757ZM126.444 42.994c-1.025 0-1.945-.163-2.758-.488a6.063 6.063 0 0 1-2.076-1.38 6.153 6.153 0 0 1-1.294-2.038 6.866 6.866 0 0 1-.451-2.49v-.489c0-1 .142-1.916.427-2.746.285-.83.692-1.55 1.221-2.16a5.362 5.362 0 0 1 1.953-1.405c.765-.333 1.627-.5 2.588-.5.936 0 1.766.155 2.49.464a4.88 4.88 0 0 1 1.819 1.318c.496.57.871 1.253 1.123 2.05.252.79.378 1.67.378 2.638v1.464h-10.498V34.89h7.044v-.269c0-.488-.09-.923-.269-1.306-.171-.39-.431-.7-.781-.928-.35-.228-.798-.342-1.343-.342-.464 0-.863.102-1.196.306a2.361 2.361 0 0 0-.818.854 4.639 4.639 0 0 0-.464 1.294 8.207 8.207 0 0 0-.146 1.611v.489a4.7 4.7 0 0 0 .219 1.465c.155.447.371.834.647 1.16.285.325.627.577 1.026.756a3.39 3.39 0 0 0 1.379.269c.635 0 1.225-.122 1.77-.367a3.827 3.827 0 0 0 1.428-1.135l1.709 1.856c-.276.398-.655.78-1.135 1.147-.472.366-1.042.667-1.709.903-.667.228-1.428.342-2.283.342ZM153.166 39.894v2.856h-12.598l.772-2.869 11.826.013Zm-.184-12.879L142.191 42.75h-2.575v-2.1l10.876-15.673h2.49v2.038Zm-1.257-2.038-.885 2.868h-11.212v-2.868h12.097ZM154.447 36.28v-.256c0-.968.139-1.86.415-2.673a6.19 6.19 0 0 1 1.209-2.137 5.416 5.416 0 0 1 1.953-1.403c.773-.342 1.66-.513 2.661-.513 1.001 0 1.892.17 2.673.513a5.388 5.388 0 0 1 1.966 1.403 6.07 6.07 0 0 1 1.22 2.137c.277.813.415 1.705.415 2.673v.256a8.32 8.32 0 0 1-.415 2.674 6.218 6.218 0 0 1-1.22 2.136 5.416 5.416 0 0 1-1.953 1.404c-.774.333-1.661.5-2.662.5s-1.892-.167-2.673-.5a5.53 5.53 0 0 1-1.965-1.404 6.343 6.343 0 0 1-1.209-2.136 8.348 8.348 0 0 1-.415-2.674Zm3.516-.256v.256c0 .554.049 1.07.146 1.55.098.48.253.904.464 1.27.22.358.505.639.855.842.35.204.777.306 1.281.306.489 0 .908-.102 1.258-.306.35-.203.63-.484.842-.842.212-.366.366-.79.464-1.27.106-.48.159-.996.159-1.55v-.256c0-.537-.053-1.042-.159-1.514a3.997 3.997 0 0 0-.476-1.27 2.366 2.366 0 0 0-.842-.878c-.35-.212-.774-.318-1.27-.318s-.92.106-1.269.318a2.5 2.5 0 0 0-.843.879c-.211.366-.366.79-.464 1.27a7.511 7.511 0 0 0-.146 1.513ZM172.562 32.362V42.75h-3.515V29.542h3.296l.219 2.82Zm-.512 3.32h-.952c0-.976.126-1.855.378-2.637.252-.789.606-1.46 1.062-2.014a4.564 4.564 0 0 1 1.624-1.281c.634-.302 1.342-.452 2.124-.452.618 0 1.184.09 1.696.268.513.18.953.464 1.319.855.374.39.659.907.854 1.55.204.643.305 1.428.305 2.356v8.423h-3.54v-8.435c0-.586-.081-1.042-.244-1.367a1.369 1.369 0 0 0-.72-.684c-.309-.138-.692-.207-1.147-.207-.472 0-.883.093-1.233.28a2.45 2.45 0 0 0-.855.782c-.22.325-.386.708-.5 1.147-.114.44-.171.912-.171 1.416ZM189.213 42.994c-1.025 0-1.945-.163-2.759-.488a6.06 6.06 0 0 1-2.075-1.38 6.121 6.121 0 0 1-1.294-2.038 6.866 6.866 0 0 1-.452-2.49v-.489c0-1 .143-1.916.428-2.746.284-.83.691-1.55 1.22-2.16a5.362 5.362 0 0 1 1.953-1.405c.765-.333 1.628-.5 2.588-.5.936 0 1.766.155 2.49.464.725.309 1.331.748 1.819 1.318.497.57.871 1.253 1.123 2.05.253.79.379 1.67.379 2.638v1.464h-10.498V34.89h7.043v-.269c0-.488-.089-.923-.268-1.306-.171-.39-.432-.7-.782-.928-.35-.228-.797-.342-1.342-.342-.464 0-.863.102-1.197.306a2.37 2.37 0 0 0-.818.854 4.639 4.639 0 0 0-.463 1.294 8.203 8.203 0 0 0-.147 1.611v.489c0 .529.073 1.017.22 1.465.154.447.37.834.647 1.16a2.95 2.95 0 0 0 1.025.756c.407.179.867.269 1.38.269.634 0 1.224-.122 1.77-.367a3.835 3.835 0 0 0 1.428-1.135l1.709 1.856c-.277.398-.655.78-1.135 1.147-.472.366-1.042.667-1.709.903-.668.228-1.429.342-2.283.342Z" fill="#fff"/>
  <path d="M77.921 36.415h-4.528v-2.857h4.528c.7 0 1.27-.114 1.71-.342.439-.236.76-.561.964-.976.203-.415.305-.883.305-1.404a3.58 3.58 0 0 0-.305-1.477 2.465 2.465 0 0 0-.965-1.099c-.44-.276-1.009-.415-1.709-.415h-3.259V42.75H71V24.977h6.921c1.392 0 2.584.252 3.577.756 1.001.497 1.766 1.184 2.295 2.063.529.88.793 1.884.793 3.015 0 1.148-.264 2.14-.793 2.979-.529.838-1.294 1.485-2.295 1.941-.993.456-2.185.684-3.577.684ZM94.706 39.588V29.542h3.516V42.75h-3.308l-.208-3.162Zm.39-2.71 1.038-.024c0 .879-.101 1.697-.305 2.454-.203.748-.508 1.4-.915 1.953-.407.545-.92.972-1.538 1.281-.619.302-1.347.452-2.186.452-.642 0-1.236-.09-1.782-.268a3.629 3.629 0 0 1-1.391-.867c-.383-.399-.684-.907-.904-1.526-.211-.627-.317-1.38-.317-2.258v-8.533h3.515v8.557c0 .39.045.72.135.989.097.268.232.488.403.66.17.17.37.292.598.365.236.074.496.11.781.11.724 0 1.294-.146 1.709-.44.423-.292.72-.691.891-1.196.18-.512.269-1.082.269-1.709ZM104.618 24v18.75h-3.528V24h3.528ZM114.665 39.1c0-.252-.074-.48-.22-.684-.147-.203-.419-.39-.818-.561-.391-.18-.956-.342-1.697-.488-.667-.147-1.29-.33-1.868-.55a6.487 6.487 0 0 1-1.489-.818 3.555 3.555 0 0 1-.976-1.123c-.236-.439-.354-.94-.354-1.501 0-.553.118-1.074.354-1.563.244-.488.59-.92 1.037-1.293.456-.383 1.009-.68 1.66-.892.66-.22 1.4-.33 2.222-.33 1.148 0 2.132.184 2.954.55.83.366 1.465.87 1.905 1.514.447.635.671 1.359.671 2.173h-3.516c0-.342-.073-.647-.219-.916a1.456 1.456 0 0 0-.66-.647c-.293-.163-.675-.244-1.147-.244-.391 0-.728.07-1.013.208-.285.13-.505.309-.659.537-.147.22-.22.463-.22.732 0 .204.041.387.122.55.089.154.232.297.427.427.195.13.448.252.757.366.317.106.708.203 1.172.293.952.195 1.802.451 2.551.769.749.31 1.343.732 1.782 1.27.44.528.66 1.224.66 2.087 0 .586-.131 1.123-.391 1.611a3.898 3.898 0 0 1-1.123 1.282c-.488.358-1.074.639-1.758.842-.675.196-1.436.293-2.283.293-1.229 0-2.27-.22-3.125-.659-.846-.44-1.489-.997-1.928-1.672-.432-.684-.647-1.384-.647-2.1h3.332c.016.48.139.867.366 1.16a2 2 0 0 0 .891.634c.367.13.761.196 1.185.196.455 0 .834-.061 1.135-.183.301-.13.529-.301.683-.513.163-.22.245-.472.245-.757ZM126.444 42.994c-1.025 0-1.945-.163-2.758-.488a6.063 6.063 0 0 1-2.076-1.38 6.153 6.153 0 0 1-1.294-2.038 6.866 6.866 0 0 1-.451-2.49v-.489c0-1 .142-1.916.427-2.746.285-.83.692-1.55 1.221-2.16a5.362 5.362 0 0 1 1.953-1.405c.765-.333 1.627-.5 2.588-.5.936 0 1.766.155 2.49.464a4.88 4.88 0 0 1 1.819 1.318c.496.57.871 1.253 1.123 2.05.252.79.378 1.67.378 2.638v1.464h-10.498V34.89h7.044v-.269c0-.488-.09-.923-.269-1.306-.171-.39-.431-.7-.781-.928-.35-.228-.798-.342-1.343-.342-.464 0-.863.102-1.196.306a2.361 2.361 0 0 0-.818.854 4.639 4.639 0 0 0-.464 1.294 8.207 8.207 0 0 0-.146 1.611v.489a4.7 4.7 0 0 0 .219 1.465c.155.447.371.834.647 1.16.285.325.627.577 1.026.756a3.39 3.39 0 0 0 1.379.269c.635 0 1.225-.122 1.77-.367a3.827 3.827 0 0 0 1.428-1.135l1.709 1.856c-.276.398-.655.78-1.135 1.147-.472.366-1.042.667-1.709.903-.667.228-1.428.342-2.283.342ZM153.166 39.894v2.856h-12.598l.772-2.869 11.826.013Zm-.184-12.879L142.191 42.75h-2.575v-2.1l10.876-15.673h2.49v2.038Zm-1.257-2.038-.885 2.868h-11.212v-2.868h12.097ZM154.447 36.28v-.256c0-.968.139-1.86.415-2.673a6.19 6.19 0 0 1 1.209-2.137 5.416 5.416 0 0 1 1.953-1.403c.773-.342 1.66-.513 2.661-.513 1.001 0 1.892.17 2.673.513a5.388 5.388 0 0 1 1.966 1.403 6.07 6.07 0 0 1 1.22 2.137c.277.813.415 1.705.415 2.673v.256a8.32 8.32 0 0 1-.415 2.674 6.218 6.218 0 0 1-1.22 2.136 5.416 5.416 0 0 1-1.953 1.404c-.774.333-1.661.5-2.662.5s-1.892-.167-2.673-.5a5.53 5.53 0 0 1-1.965-1.404 6.343 6.343 0 0 1-1.209-2.136 8.348 8.348 0 0 1-.415-2.674Zm3.516-.256v.256c0 .554.049 1.07.146 1.55.098.48.253.904.464 1.27.22.358.505.639.855.842.35.204.777.306 1.281.306.489 0 .908-.102 1.258-.306.35-.203.63-.484.842-.842.212-.366.366-.79.464-1.27.106-.48.159-.996.159-1.55v-.256c0-.537-.053-1.042-.159-1.514a3.997 3.997 0 0 0-.476-1.27 2.366 2.366 0 0 0-.842-.878c-.35-.212-.774-.318-1.27-.318s-.92.106-1.269.318a2.5 2.5 0 0 0-.843.879c-.211.366-.366.79-.464 1.27a7.511 7.511 0 0 0-.146 1.513ZM172.562 32.362V42.75h-3.515V29.542h3.296l.219 2.82Zm-.512 3.32h-.952c0-.976.126-1.855.378-2.637.252-.789.606-1.46 1.062-2.014a4.564 4.564 0 0 1 1.624-1.281c.634-.302 1.342-.452 2.124-.452.618 0 1.184.09 1.696.268.513.18.953.464 1.319.855.374.39.659.907.854 1.55.204.643.305 1.428.305 2.356v8.423h-3.54v-8.435c0-.586-.081-1.042-.244-1.367a1.369 1.369 0 0 0-.72-.684c-.309-.138-.692-.207-1.147-.207-.472 0-.883.093-1.233.28a2.45 2.45 0 0 0-.855.782c-.22.325-.386.708-.5 1.147-.114.44-.171.912-.171 1.416ZM189.213 42.994c-1.025 0-1.945-.163-2.759-.488a6.06 6.06 0 0 1-2.075-1.38 6.121 6.121 0 0 1-1.294-2.038 6.866 6.866 0 0 1-.452-2.49v-.489c0-1 .143-1.916.428-2.746.284-.83.691-1.55 1.22-2.16a5.362 5.362 0 0 1 1.953-1.405c.765-.333 1.628-.5 2.588-.5.936 0 1.766.155 2.49.464.725.309 1.331.748 1.819 1.318.497.57.871 1.253 1.123 2.05.253.79.379 1.67.379 2.638v1.464h-10.498V34.89h7.043v-.269c0-.488-.089-.923-.268-1.306-.171-.39-.432-.7-.782-.928-.35-.228-.797-.342-1.342-.342-.464 0-.863.102-1.197.306a2.37 2.37 0 0 0-.818.854 4.639 4.639 0 0 0-.463 1.294 8.203 8.203 0 0 0-.147 1.611v.489c0 .529.073 1.017.22 1.465.154.447.37.834.647 1.16a2.95 2.95 0 0 0 1.025.756c.407.179.867.269 1.38.269.634 0 1.224-.122 1.77-.367a3.835 3.835 0 0 0 1.428-1.135l1.709 1.856c-.277.398-.655.78-1.135 1.147-.472.366-1.042.667-1.709.903-.668.228-1.429.342-2.283.342Z" stroke="#284B63" stroke-width="4" mask="url(#b)"/>
  <defs>
    <filter id="a" x="0" y="0" width="71" height="75" filterUnits="userSpaceOnUse" color-interpolation-filters="sRGB">
      <feFlood flood-opacity="0" result="BackgroundImageFix"/>
      <feColorMatrix in="SourceAlpha" values="0 0 0 0 0 0 0 0 0 0 0 0 0 0 0 0 0 0 127 0" result="hardAlpha"/>
      <feOffset dy="4"/>
      <feGaussianBlur stdDeviation="2"/>
      <feComposite in2="hardAlpha" operator="out"/>
      <feColorMatrix values="0 0 0 0 0 0 0 0 0 0 0 0 0 0 0 0 0 0 0.25 0"/>
      <feBlend in2="BackgroundImageFix" result="effect1_dropShadow_5_13"/>
      <feBlend in="SourceGraphic" in2="effect1_dropShadow_5_13" result="shape"/>
    </filter>
  </defs>
</svg>
